<?xml version="1.0" encoding="UTF-8" standalone="no"?>

<svg
        xmlns="http://www.w3.org/2000/svg"
        viewBox="0 0 768 768"
        width="768"
        height="768"
        role="img"
        aria-labelledby="titleID descID"
>
  <title id="titleID">Coffee Cup</title>
  <desc id="descID">Minimal coffee cup illustration </desc>

  <path stroke="none" fill="black" fill-rule="evenodd" d="M391.0,696.4C377.0,696.6 361.7,696.6 357.0,696.4C352.3,696.2 339.6,695.3 328.7,694.5C317.7,693.6 302.4,692.0 294.7,691.0C286.9,689.9 275.8,688.4 270.0,687.5C264.2,686.6 254.3,685.0 248.0,683.9C241.7,682.8 230.0,680.3 222.0,678.4C214.0,676.4 202.4,673.3 196.1,671.4C189.8,669.5 181.7,666.9 178.1,665.6C174.5,664.3 165.9,660.7 159.1,657.6C152.2,654.6 143.0,649.9 138.6,647.4C134.1,644.8 127.1,640.4 123.0,637.5C118.9,634.5 112.0,628.9 107.7,625.0C103.5,621.0 97.9,615.2 95.5,612.0C93.0,608.8 89.0,602.2 86.6,597.3C84.2,592.5 80.6,583.7 78.6,577.8C76.6,571.9 74.4,563.2 73.8,558.5C72.9,552.1 72.9,547.9 73.8,541.3C74.8,534.2 75.9,530.6 80.0,522.5C83.1,516.2 87.1,510.0 90.8,505.9C94.1,502.2 99.8,496.4 103.5,493.1C107.2,489.7 115.1,483.7 120.9,479.8C126.7,475.9 137.8,469.7 145.5,466.0C153.2,462.3 164.2,457.4 170.0,455.2C175.8,452.9 186.6,449.5 194.0,447.6C201.4,445.6 210.1,443.8 213.2,443.4C217.6,442.9 219.0,442.3 219.0,441.1C219.0,440.2 217.4,430.5 215.6,419.5C213.7,408.5 210.7,388.7 209.0,375.5C207.3,362.3 204.4,340.5 202.5,327.0C200.6,313.5 197.9,294.9 196.5,285.5C195.1,276.1 193.0,263.3 191.8,257.0C190.5,250.7 189.5,241.9 189.5,237.5C189.5,230.1 189.8,229.0 192.8,224.3C194.7,221.4 198.8,216.7 201.9,213.8C205.1,210.8 210.9,206.5 214.8,204.2C218.7,201.8 224.9,198.6 228.4,197.0C232.0,195.4 239.9,192.5 246.1,190.5C252.3,188.5 261.9,185.8 267.4,184.5C273.0,183.2 282.9,181.2 289.5,180.1C296.1,179.0 306.0,177.7 311.5,177.1C317.0,176.5 329.5,175.8 339.2,175.4C349.0,175.0 357.0,174.4 357.0,174.0C357.0,173.6 355.4,171.3 353.5,168.8C351.1,165.8 349.7,162.6 349.0,158.7C348.2,154.6 348.2,151.9 349.0,148.8C350.0,145.5 352.8,142.0 362.8,131.6C369.8,124.4 376.0,118.4 376.6,118.2C377.3,118.0 378.7,119.4 379.8,121.2C380.9,123.0 382.1,125.7 382.5,127.2C382.9,128.7 382.9,130.8 382.5,132.0C382.1,133.2 378.0,138.5 373.4,143.8C368.3,149.5 364.6,154.7 364.0,156.9C363.5,158.9 363.0,161.4 363.0,162.5C363.0,163.6 363.9,166.3 364.9,168.6C365.9,170.8 368.2,174.3 370.0,176.3C371.8,178.3 373.8,180.0 374.5,180.0C375.2,180.0 376.0,179.3 376.3,178.5C376.7,177.7 376.3,174.6 375.5,171.5C374.7,168.4 374.0,164.0 374.0,161.6C374.0,157.6 374.6,156.6 382.0,148.4C387.9,141.9 390.4,138.3 391.1,135.3C392.1,131.6 392.5,131.2 394.0,132.0C395.0,132.6 397.0,135.4 398.5,138.4C400.7,142.9 401.1,144.7 400.5,148.1C400.1,150.7 397.7,155.3 394.3,160.4C391.2,164.8 386.6,171.0 384.0,174.0C381.5,177.0 377.9,181.6 376.1,184.3C374.3,186.9 372.0,190.9 371.0,193.3C369.8,195.9 369.0,199.8 369.0,203.3C369.0,207.8 369.9,211.6 373.0,219.4C375.2,225.1 377.9,230.5 379.0,231.5C380.0,232.4 381.4,232.9 381.9,232.5C382.5,232.2 383.0,229.8 383.0,227.3C383.0,224.7 382.0,219.2 380.9,215.1C379.4,209.8 378.9,206.0 379.3,202.4C379.6,199.5 380.6,195.7 381.5,193.9C382.5,192.0 386.2,186.6 389.7,181.8C396.1,173.3 396.2,173.2 399.3,174.1C401.1,174.6 405.0,175.0 408.1,175.0C411.2,175.0 420.4,175.7 428.6,176.5C436.8,177.4 449.4,179.0 456.5,180.1C463.6,181.3 472.4,182.8 476.0,183.6C479.6,184.4 489.2,187.1 497.5,189.6C505.8,192.2 517.1,196.4 522.8,199.1C528.5,201.7 535.9,205.9 539.3,208.3C542.7,210.8 547.5,214.9 549.9,217.5C552.2,220.0 555.1,224.3 556.3,226.8C557.6,229.9 558.4,233.7 558.4,238.0C558.4,241.6 557.6,251.8 556.7,260.8C555.7,269.8 555.2,277.5 555.5,278.0C555.9,278.6 560.9,279.0 566.7,279.0C572.5,279.0 581.9,279.7 587.7,280.6C593.5,281.4 602.5,283.6 607.8,285.4C613.1,287.2 620.0,289.9 623.0,291.5C626.0,293.0 631.5,296.5 635.2,299.2C638.9,301.9 644.3,306.7 647.2,309.9C650.1,313.0 654.2,318.5 656.3,322.1C658.4,325.6 661.2,332.0 662.5,336.3C663.9,340.7 665.6,348.4 666.2,353.6C667.1,360.9 667.1,365.3 666.2,373.3C665.6,378.9 664.1,387.1 663.0,391.5C661.8,396.1 658.0,405.4 654.0,413.5C650.2,421.2 644.8,430.6 641.9,434.5C639.0,438.4 630.2,448.0 622.3,455.9C614.4,463.8 608.2,470.6 608.7,471.0C609.1,471.4 611.8,472.5 614.5,473.5C617.2,474.5 623.1,477.1 627.4,479.3C631.8,481.4 640.1,486.4 645.9,490.3C652.4,494.6 660.2,501.1 666.1,507.0C671.4,512.3 677.3,519.3 679.2,522.6C681.1,525.9 683.7,531.3 685.0,534.6C686.7,538.9 687.4,543.4 687.7,551.0C688.1,559.5 687.8,563.2 686.1,570.5C684.9,575.4 682.4,582.6 680.5,586.5C678.6,590.3 674.8,596.5 672.1,600.1C669.3,603.8 662.9,610.6 657.9,615.4C652.4,620.7 643.3,627.7 634.7,633.4C626.9,638.5 617.1,644.5 613.0,646.8C608.9,649.0 599.2,653.6 591.5,657.0C583.8,660.5 568.7,666.1 558.0,669.7C547.3,673.3 530.4,678.1 520.5,680.6C510.6,683.0 495.8,686.1 487.5,687.5C479.2,688.8 465.3,690.9 456.5,692.0C447.7,693.1 435.1,694.4 428.5,695.0C421.9,695.6 405.0,696.2 391.0,696.4zM384.0,664.5C405.9,664.3 424.3,663.6 434.5,662.6C443.3,661.7 457.9,660.1 467.0,659.0C476.1,657.9 490.5,655.8 499.0,654.4C507.5,653.0 526.0,648.9 540.0,645.4C554.0,641.9 571.6,636.8 579.0,634.1C586.4,631.4 596.9,627.3 602.3,625.0C607.8,622.8 615.7,619.2 620.0,617.1C624.2,615.0 629.9,612.0 632.6,610.4C635.3,608.9 641.4,605.0 646.2,601.7C651.0,598.5 657.6,592.9 661.0,589.4C664.3,585.9 667.7,581.6 668.6,579.9C669.7,577.6 669.8,577.0 668.8,577.6C668.1,578.0 662.8,581.8 657.0,586.0C651.2,590.2 641.8,596.5 636.0,600.0C630.2,603.5 622.1,607.9 618.0,609.8C613.9,611.7 606.0,615.0 600.5,617.2C595.0,619.4 584.6,623.2 577.5,625.7C570.4,628.1 558.4,631.6 551.0,633.5C543.6,635.4 531.6,638.0 524.5,639.4C517.4,640.8 507.2,642.6 502.0,643.4C496.8,644.2 486.6,645.6 479.5,646.4C472.4,647.3 458.2,648.7 448.0,649.5C437.8,650.4 413.1,651.4 393.0,651.7C370.0,652.0 348.9,651.8 336.0,651.1C324.7,650.5 306.7,649.0 296.0,647.9C285.3,646.8 272.2,645.3 267.0,644.5C261.8,643.6 253.4,642.3 248.5,641.4C243.6,640.6 236.8,639.2 233.5,638.4C230.2,637.6 225.8,636.2 223.8,635.3C221.7,634.4 220.3,633.3 220.6,632.9C220.9,632.4 222.3,632.0 223.6,632.0C225.0,632.0 236.4,633.6 248.8,635.5C261.3,637.4 275.6,639.4 280.5,639.9C285.4,640.5 295.1,641.4 302.0,641.9C308.9,642.5 321.2,643.4 329.4,644.0C337.6,644.6 359.6,645.0 378.4,645.0C402.8,645.0 420.0,644.5 439.0,643.0C453.6,641.9 471.4,640.4 478.5,639.5C485.6,638.7 497.6,636.8 505.0,635.4C512.4,634.0 525.2,631.3 533.5,629.4C541.8,627.5 553.9,624.3 560.5,622.4C567.1,620.4 579.2,616.3 587.5,613.4C595.7,610.4 608.9,604.8 616.8,601.0C624.7,597.2 635.7,591.1 641.3,587.4C647.3,583.5 655.1,577.2 660.1,572.1C665.2,567.0 669.8,561.3 671.4,558.2C672.9,555.2 674.4,550.6 674.7,547.9C675.0,545.2 674.9,543.0 674.4,543.0C673.9,543.0 671.8,545.6 669.8,548.8C667.7,552.0 664.6,555.9 662.9,557.5C659.7,560.5 659.7,560.5 660.4,557.5C660.8,555.9 661.3,551.2 661.7,547.1C662.3,539.8 662.3,539.8 659.9,540.5C658.6,540.9 655.1,543.1 652.2,545.2C649.3,547.4 644.5,550.4 641.7,551.8C636.6,554.5 636.6,554.5 605.8,554.8C588.8,555.0 564.2,554.7 551.2,554.2C533.4,553.5 526.6,552.9 523.7,551.7C521.7,550.8 519.7,549.4 519.4,548.6C519.0,547.6 521.4,543.8 525.7,538.3C529.6,533.4 533.5,528.3 534.4,526.9C536.0,524.3 536.0,524.2 533.7,523.6C532.4,523.3 528.2,522.8 524.3,522.4C519.0,521.9 517.0,522.1 516.1,523.1C515.4,523.9 511.3,530.1 507.0,536.9C502.6,543.7 499.2,549.6 499.5,550.0C499.7,550.4 502.6,551.7 505.8,552.9C509.1,554.0 513.8,556.6 516.3,558.5C518.8,560.4 521.7,563.9 522.9,566.3C524.1,568.7 525.0,572.2 525.0,574.1C525.0,576.0 523.7,579.7 522.0,582.6C520.4,585.4 516.6,590.0 513.5,592.7C510.5,595.4 504.1,599.7 499.2,602.2C494.4,604.8 485.9,608.4 480.3,610.4C474.6,612.3 465.4,614.8 459.8,615.9C454.1,617.0 444.1,618.4 437.5,619.2C429.6,620.0 412.1,620.5 386.5,620.5C353.9,620.5 345.6,620.2 336.0,618.7C329.7,617.7 320.4,616.0 315.5,614.8C310.6,613.7 302.0,611.2 296.6,609.3C291.1,607.4 283.7,604.3 280.0,602.5C276.4,600.7 271.1,597.4 268.3,595.2C265.5,592.9 262.2,589.7 261.0,588.0C259.8,586.3 258.3,583.0 257.9,580.9C257.3,578.3 257.3,575.4 258.1,572.8C258.7,570.5 260.3,567.1 261.6,565.1C263.9,561.7 263.9,561.5 262.3,559.0C261.3,557.6 257.8,551.9 254.4,546.4C251.1,540.8 246.2,531.5 243.7,525.6C241.1,519.7 237.2,509.4 234.9,502.7C232.7,496.0 228.6,481.3 225.9,470.0C223.1,458.7 220.4,449.1 219.9,448.6C219.4,448.0 215.3,448.7 209.3,450.4C203.9,451.8 192.5,455.4 184.0,458.1C175.2,461.0 161.5,466.6 152.4,471.0C143.5,475.3 131.3,482.1 125.4,486.1C118.9,490.5 110.4,497.5 104.4,503.5C97.7,510.1 93.1,515.7 90.7,520.0C88.8,523.6 86.4,529.2 85.5,532.4C84.3,536.6 83.9,540.7 84.2,546.5C84.5,553.0 85.2,555.9 87.6,560.6C89.2,563.8 93.4,569.4 97.0,573.1C100.6,576.8 109.1,583.4 116.0,588.0C122.9,592.6 135.2,599.6 143.5,603.6C151.8,607.6 166.8,613.8 177.0,617.5C187.2,621.1 197.4,624.7 199.8,625.6C202.1,626.5 204.0,627.8 204.0,628.6C204.0,629.4 203.2,630.0 202.1,630.0C201.1,630.0 197.8,629.5 194.9,629.0C191.9,628.4 184.8,626.6 179.0,624.9C173.2,623.1 162.9,619.5 156.0,616.8C149.1,614.1 139.4,609.7 134.5,607.1C129.6,604.4 119.7,598.8 112.7,594.6C105.6,590.4 99.3,587.1 98.7,587.3C98.0,587.6 100.6,590.8 104.3,594.4C108.0,598.0 115.8,604.1 121.6,607.9C127.4,611.8 136.5,617.1 141.8,619.8C147.1,622.6 155.6,626.5 160.5,628.5C165.4,630.6 175.3,634.3 182.5,636.7C189.7,639.2 200.6,642.5 206.8,644.1C213.0,645.7 228.1,649.0 240.3,651.5C252.5,653.9 268.8,656.8 276.5,657.9C284.2,659.0 297.7,660.7 306.5,661.5C315.3,662.4 328.6,663.5 336.0,664.0C343.4,664.4 365.0,664.7 384.0,664.5zM373.1,611.8C381.7,611.9 395.5,611.3 403.8,610.5C412.1,609.7 422.6,608.3 427.1,607.4C431.7,606.6 439.0,604.7 443.4,603.3C447.9,601.9 454.4,599.3 458.0,597.4C461.6,595.5 466.2,592.4 468.4,590.4C470.5,588.5 472.0,586.7 471.8,586.4C471.5,586.2 467.2,587.5 462.3,589.4C457.4,591.3 448.6,594.0 442.9,595.4C437.2,596.8 428.0,598.6 422.5,599.4C417.0,600.2 406.6,601.4 399.5,602.1C391.6,602.8 380.8,603.0 372.0,602.6C364.0,602.2 353.2,601.5 348.0,600.9C342.8,600.4 334.2,599.3 329.0,598.4C323.8,597.5 315.7,595.7 311.2,594.4C306.6,593.0 299.3,590.6 295.0,588.9C290.7,587.3 283.5,583.5 279.0,580.5C274.5,577.5 270.5,575.0 269.9,575.0C269.4,575.0 269.0,575.5 269.0,576.0C269.0,576.6 269.9,578.9 271.0,581.1C272.2,583.3 274.9,586.8 277.0,588.9C279.2,591.0 284.0,594.3 287.7,596.3C291.5,598.2 298.1,600.9 302.5,602.3C306.9,603.7 314.8,605.7 320.0,606.8C325.2,607.9 333.8,609.3 339.0,609.9C344.2,610.5 350.5,611.2 353.0,611.3C355.5,611.5 364.5,611.7 373.1,611.8zM376.7,595.6C386.7,595.3 387.1,595.2 392.2,591.6C395.1,589.6 402.6,583.6 408.9,578.2C415.5,572.6 423.5,564.4 428.0,558.8C432.3,553.5 437.7,545.4 439.9,540.8C442.2,536.2 444.7,529.4 445.5,525.5C446.3,521.6 447.6,509.3 448.4,498.0C449.3,486.7 450.4,464.2 451.0,448.0C451.5,431.8 452.3,391.3 452.7,358.1C453.3,297.7 453.3,297.7 448.4,298.3C445.7,298.6 435.5,299.4 425.8,300.1C414.3,300.8 393.4,301.1 366.8,300.7C334.7,300.3 321.4,299.7 307.0,298.1C296.8,297.0 283.3,295.2 277.0,294.0C270.7,292.9 260.3,290.6 254.0,289.0C247.7,287.4 238.9,284.9 234.5,283.4C230.1,282.0 223.2,279.2 219.1,277.4C214.9,275.5 211.3,274.3 210.8,274.8C210.3,275.3 211.7,289.5 214.0,307.1C216.2,324.4 219.7,349.8 221.6,363.5C223.5,377.2 226.2,395.0 227.5,403.0C228.8,411.0 231.3,425.5 233.0,435.4C234.7,445.2 237.6,460.0 239.5,468.4C241.3,476.7 244.2,488.4 246.0,494.5C247.8,500.6 251.0,510.4 253.2,516.5C255.4,522.5 258.3,529.3 259.6,531.6C260.9,533.9 262.9,536.5 264.0,537.5C265.9,539.2 266.0,539.2 266.0,537.4C266.0,536.4 264.4,530.4 262.5,524.1C260.6,517.9 257.4,505.1 255.5,495.6C253.6,486.2 251.8,475.6 251.4,472.1C250.7,465.7 250.7,465.7 255.0,466.3C257.4,466.6 260.1,467.7 261.0,468.7C262.0,469.7 264.4,477.2 266.5,486.0C268.6,494.5 272.5,507.9 275.2,515.7C277.9,523.6 282.1,534.8 284.6,540.7C287.0,546.7 292.4,557.6 296.5,565.2C300.6,572.7 304.0,579.1 304.0,579.4C304.0,579.8 302.8,580.5 301.2,581.2C298.5,582.3 298.5,582.3 302.5,584.1C304.7,585.1 310.4,587.0 315.0,588.3C319.7,589.7 327.9,591.5 333.4,592.5C338.8,593.4 348.5,594.5 354.9,595.0C361.3,595.4 371.1,595.7 376.7,595.6zM591.1,518.8C636.7,519.0 636.7,519.0 640.6,516.1C642.7,514.5 646.0,511.8 647.8,510.2C649.5,508.5 651.0,506.4 651.0,505.6C651.0,504.8 649.8,502.9 648.2,501.5C646.7,500.0 641.5,496.2 636.5,492.9C631.6,489.6 622.8,484.5 616.9,481.5C611.0,478.5 605.5,476.0 604.7,476.0C603.9,476.0 601.3,477.7 598.9,479.9C596.5,482.0 591.0,486.3 586.6,489.4C582.3,492.5 574.4,497.5 569.1,500.5C563.8,503.5 554.6,508.0 548.5,510.5C542.5,513.0 536.9,515.6 536.1,516.3C534.9,517.3 535.7,517.6 540.1,518.1C543.1,518.4 566.0,518.7 591.1,518.8zM522.9,492.0C523.9,492.0 529.5,490.4 535.2,488.5C540.8,486.5 551.8,481.8 559.5,478.0C567.2,474.2 577.8,468.4 583.0,464.9C588.2,461.5 597.0,455.0 602.5,450.5C608.0,446.0 615.2,439.4 618.4,435.9C621.7,432.4 626.5,426.2 629.1,422.2C631.7,418.2 635.3,411.2 637.0,406.7C638.8,402.2 640.8,395.6 641.6,392.0C642.3,388.4 643.0,380.7 643.0,374.9C643.0,367.7 642.4,361.9 641.1,356.8C640.0,352.6 637.6,346.1 635.7,342.3C633.7,338.5 630.4,333.1 628.2,330.3C626.0,327.5 620.8,323.0 616.6,320.2C612.5,317.5 605.6,313.8 601.3,312.2C597.0,310.5 589.9,308.4 585.5,307.5C581.1,306.5 573.0,305.7 567.5,305.7C559.9,305.6 556.7,306.0 554.3,307.3C552.6,308.2 550.8,309.4 550.5,310.0C550.1,310.6 553.9,311.0 561.5,311.0C568.2,311.0 576.3,311.7 580.7,312.6C584.9,313.4 591.1,315.3 594.4,316.6C597.8,317.9 603.5,321.3 607.2,324.1C611.7,327.5 615.5,331.4 618.8,336.3C621.5,340.5 624.8,347.2 626.4,352.0C628.4,357.8 629.4,363.4 629.8,369.6C630.0,374.7 629.7,381.7 629.1,385.6C628.4,389.4 626.6,395.6 625.1,399.5C623.6,403.4 620.6,409.3 618.4,412.6C616.3,415.8 611.1,422.0 607.0,426.4C602.9,430.7 595.5,437.2 590.5,441.0C585.6,444.7 577.6,450.0 572.8,452.9C568.0,455.8 560.4,459.7 555.9,461.7C551.4,463.6 543.6,466.1 538.6,467.1C532.8,468.3 529.1,469.6 528.3,470.7C527.6,471.6 525.6,475.9 524.0,480.2C522.3,484.4 521.0,488.8 521.0,490.0C521.0,491.3 521.7,492.0 522.9,492.0zM535.2,453.7C539.0,453.4 543.7,451.9 548.6,449.6C552.7,447.7 559.5,443.8 563.8,440.9C568.0,438.0 574.9,433.2 579.0,430.1C583.1,427.0 590.1,420.8 594.5,416.4C599.0,411.9 604.7,405.0 607.3,401.2C609.9,397.3 613.4,391.2 615.1,387.6C616.8,384.1 618.6,378.2 619.2,374.7C619.9,370.1 619.9,366.5 619.2,362.1C618.6,358.7 616.9,353.3 615.4,350.0C613.7,346.1 610.8,342.2 606.9,338.5C603.6,335.3 598.3,331.6 594.6,329.9C591.1,328.2 585.2,326.4 581.7,325.8C578.1,325.2 573.7,325.0 571.8,325.4C569.9,325.7 565.7,328.1 562.4,330.6C559.2,333.2 555.1,335.9 553.3,336.6C551.5,337.4 548.7,338.0 547.1,338.0C545.0,338.0 543.6,338.7 542.6,340.2C541.8,341.6 540.8,348.3 540.1,357.5C539.4,365.8 538.0,381.3 536.9,392.0C535.9,402.7 534.3,416.2 533.4,421.9C532.5,427.7 531.0,436.6 530.0,441.8C529.0,447.0 528.4,451.9 528.7,452.8C529.2,453.9 530.5,454.1 535.2,453.7zM640.8,336.4C641.0,335.6 639.6,331.5 637.6,327.4C635.4,322.7 634.5,320.0 635.4,320.0C636.1,320.0 639.2,321.6 642.4,323.5C647.7,326.7 648.1,326.8 647.4,324.7C647.1,323.5 645.9,320.9 645.0,319.0C644.0,317.1 641.3,313.5 638.9,311.1C636.6,308.7 631.5,304.7 627.7,302.2C623.8,299.7 617.2,296.2 613.0,294.5C608.9,292.7 601.6,290.3 597.0,289.0C590.8,287.4 584.4,286.7 573.5,286.3C563.8,286.0 557.0,286.2 554.3,286.9C551.2,287.7 548.8,289.5 545.0,293.8C542.2,296.9 539.4,301.2 538.8,303.2C538.2,305.3 538.0,307.3 538.4,307.7C538.8,308.1 540.3,307.6 541.8,306.7C543.3,305.7 546.1,304.1 548.0,303.2C550.9,301.8 554.3,301.5 567.0,301.6C579.6,301.7 584.0,302.1 590.5,303.8C594.9,305.0 601.2,307.4 604.6,309.1C607.9,310.8 612.6,313.7 615.1,315.6C617.5,317.5 622.1,320.8 625.2,323.0C628.3,325.2 633.0,329.4 635.7,332.5C638.9,336.2 640.6,337.5 640.8,336.4zM379.5,293.5C399.8,293.2 415.6,292.4 428.5,291.1C438.9,290.0 451.6,288.6 456.5,288.0C461.4,287.4 469.9,286.0 475.3,284.9C480.6,283.8 490.1,281.4 496.3,279.6C502.4,277.7 511.2,274.6 515.7,272.7C520.2,270.8 527.0,267.1 530.9,264.6C534.7,262.0 540.2,257.4 543.1,254.2C546.0,251.1 549.2,246.5 550.3,244.1C551.6,241.0 552.1,238.3 551.8,235.0C551.5,231.9 550.2,228.8 548.1,225.6C546.3,223.0 541.8,218.6 538.1,215.9C534.5,213.2 527.0,208.8 521.5,206.1C516.0,203.4 505.9,199.4 499.0,197.1C492.1,194.9 482.7,192.1 478.0,191.1C473.3,190.0 463.6,188.2 456.5,187.1C449.4,186.0 436.8,184.4 428.6,183.5C420.4,182.7 410.9,182.0 407.4,182.0C401.0,182.0 401.0,182.0 396.9,187.2C394.6,190.1 391.6,194.1 390.3,196.1C389.0,198.1 387.6,201.0 387.1,202.7C386.6,204.4 386.6,206.3 387.0,207.0C387.5,207.9 393.1,208.7 403.6,209.6C412.4,210.4 422.9,211.5 427.0,212.0C431.1,212.6 440.8,214.2 448.5,215.6C456.2,216.9 467.5,219.3 473.7,220.9C479.8,222.6 489.6,225.7 495.4,227.9C501.3,230.1 509.2,234.0 513.0,236.5C517.3,239.3 520.9,242.7 522.3,245.1C524.7,249.0 524.7,249.0 527.3,247.0C528.7,245.9 530.8,243.1 531.9,240.7C533.1,238.3 534.0,234.5 534.0,232.2C534.0,229.9 534.4,228.0 534.9,228.0C535.4,228.0 536.5,229.1 537.3,230.4C538.2,231.7 539.2,233.9 539.5,235.3C539.9,236.9 539.4,239.5 538.2,242.3C537.1,244.7 534.3,248.6 531.9,250.9C529.5,253.2 523.6,257.1 518.7,259.5C513.9,261.9 504.9,265.5 498.7,267.5C492.6,269.6 481.6,272.5 474.5,274.0C467.4,275.6 455.0,277.8 447.0,278.9C439.0,280.0 426.2,281.4 418.5,282.1C410.8,282.7 392.4,283.2 377.5,283.2C360.7,283.3 342.9,282.6 330.5,281.6C319.5,280.7 304.0,279.0 296.0,277.9C288.0,276.8 277.2,275.0 272.0,273.9C266.8,272.8 260.0,271.2 257.0,270.4C254.0,269.5 248.1,267.7 244.0,266.3C239.9,264.9 231.9,261.5 226.3,258.9C218.7,255.2 214.6,252.6 210.2,248.3C207.0,245.1 203.5,240.9 202.5,239.0C201.4,236.8 200.7,233.3 200.7,229.7C200.7,224.0 200.7,224.0 198.2,226.2C196.9,227.5 195.2,229.7 194.4,231.2C193.6,232.7 193.0,235.7 193.0,238.0C193.0,240.2 193.6,243.6 194.4,245.5C195.2,247.4 197.1,250.6 198.7,252.5C200.2,254.5 204.2,258.2 207.5,260.7C210.8,263.2 216.9,266.9 221.1,269.0C225.3,271.1 233.3,274.5 239.0,276.5C244.7,278.4 253.7,281.2 259.0,282.5C264.3,283.9 274.3,285.9 281.1,286.9C287.9,288.0 300.2,289.7 308.5,290.6C316.8,291.5 329.4,292.6 336.5,293.0C343.6,293.5 363.0,293.7 379.5,293.5zM399.0,268.4C407.5,268.2 418.3,267.4 423.0,266.6C427.7,265.9 434.0,264.5 437.1,263.6C440.1,262.7 445.1,260.5 448.0,258.7C450.9,257.0 454.2,254.3 455.3,252.9C456.8,250.7 457.0,249.9 456.1,248.1C455.4,247.0 454.5,246.0 453.9,246.0C453.3,246.0 451.7,246.9 450.3,248.0C447.7,250.0 447.7,250.0 445.3,247.6C444.0,246.3 440.6,244.6 437.8,243.9C434.9,243.3 427.9,242.8 422.1,242.8C414.5,242.9 408.7,243.6 401.5,245.4C396.1,246.8 391.4,247.7 391.1,247.5C390.9,247.2 392.0,245.6 393.6,243.9C395.2,242.2 398.6,239.7 401.2,238.3C403.9,236.8 406.0,235.0 406.0,234.2C406.0,233.1 405.2,232.9 402.3,233.5C400.3,233.9 397.0,235.1 395.0,236.1C393.1,237.2 389.7,239.2 387.5,240.5C383.8,242.8 382.5,243.0 370.5,243.0C362.1,243.0 355.3,243.5 351.5,244.5C348.2,245.4 341.9,248.1 337.5,250.6C333.1,253.2 329.1,255.6 328.6,256.0C328.1,256.5 329.2,257.8 331.1,258.9C333.0,260.1 337.4,261.9 341.0,262.9C344.6,264.0 350.2,265.4 353.5,266.0C356.8,266.6 364.9,267.5 371.5,268.0C378.1,268.5 390.5,268.7 399.0,268.4zM395.0,262.6C390.3,262.7 385.6,262.7 384.5,262.4C383.4,262.1 381.5,261.7 380.2,261.4C379.0,261.2 378.0,260.3 378.0,259.6C378.0,258.8 379.0,258.0 380.2,257.6C381.5,257.3 389.1,256.7 397.2,256.3C410.2,255.8 412.0,255.9 412.0,257.2C412.0,258.1 410.2,259.5 407.8,260.5C405.2,261.5 400.0,262.4 395.0,262.6zM215.8,245.6C216.2,245.2 216.5,242.3 216.6,239.2C216.6,235.4 217.4,232.1 218.8,229.4C219.9,227.1 223.1,223.3 225.8,220.9C228.5,218.5 233.8,214.8 237.6,212.8C241.4,210.8 248.5,208.0 253.4,206.6C258.2,205.2 263.6,204.0 265.3,204.0C267.8,204.0 265.6,205.6 253.4,212.5C242.4,218.8 237.0,222.5 232.8,226.9C229.6,230.1 227.0,233.3 227.0,234.0C227.0,234.7 228.3,234.4 230.4,233.1C232.2,231.9 237.0,229.6 241.0,228.0C245.0,226.4 255.3,223.3 263.9,221.1C272.5,218.9 286.5,216.0 295.0,214.6C303.5,213.2 315.7,211.6 322.0,211.0C328.3,210.5 338.0,210.0 343.5,210.0C349.0,210.0 355.2,209.7 357.2,209.4C361.0,208.7 361.0,208.7 361.0,203.6C361.0,200.8 362.1,195.4 363.5,191.5C364.9,187.7 366.0,184.2 366.0,183.8C366.0,183.4 365.2,182.6 364.2,182.1C363.1,181.5 354.9,181.5 342.3,182.0C331.3,182.5 316.7,183.6 309.9,184.5C303.1,185.4 292.8,187.0 287.0,188.1C281.2,189.2 272.0,191.3 266.5,192.6C261.0,194.0 252.2,196.7 247.0,198.7C241.8,200.6 234.5,203.8 230.9,205.7C227.3,207.5 221.7,211.4 218.5,214.3C215.3,217.1 211.4,221.5 209.8,223.9C207.7,227.3 207.0,229.6 207.0,233.3C207.0,237.7 207.4,238.7 211.0,242.3C213.2,244.5 215.4,246.0 215.8,245.6z" />

</svg>
